<?xml version="1.0" encoding="UTF-8"?>
<svg id="Layer_1" data-name="Layer 1" xmlns="http://www.w3.org/2000/svg" viewBox="0 0 512 512">
  <defs>
    <style>
      .cls-1 {
        fill: #fff;
      }
    </style>
  </defs>
  <path class="cls-1" d="M379.77,345.63c4.84-2.28,8.18-4.34,10.03-6.19,1.85-1.85,2.77-3.91,2.77-6.19V119.42c0-9.39-3.34-17.43-10.03-24.11-6.69-6.69-14.72-10.03-24.11-10.03h-179.26c-16.5,0-30.59,5.83-42.25,17.5-11.67,11.67-17.5,25.75-17.5,42.25v221.94c0,16.5,5.83,30.59,17.5,42.25,11.67,11.67,25.75,17.5,42.25,17.5h196.33c4.84,0,8.89-1.71,12.16-5.12,3.27-3.41,4.91-7.54,4.91-12.38v-4.27c0-3.41-1.14-6.62-3.41-9.6-2.28-2.99-5.41-5.33-9.39-7.04s-7.11-4.48-9.39-8.32c-2.28-3.84-3.41-8.18-3.41-13.02s1.14-9.11,3.41-12.8c2.28-3.7,5.41-6.54,9.39-8.54ZM187.71,136.5c0-4.84,1.64-8.89,4.91-12.16,3.27-3.27,7.33-4.91,12.16-4.91s8.89,1.64,12.16,4.91c3.27,3.27,4.91,7.33,4.91,12.16v153.65c0,4.84-1.64,8.89-4.91,12.16s-7.33,4.91-12.16,4.91-8.89-1.64-12.16-4.91c-3.27-3.27-4.91-7.33-4.91-12.16v-153.65ZM334.32,380.41c1,4.13,2.35,8.18,4.05,12.16h-159.2c-7.4,0-13.52-2.42-18.35-7.26s-7.26-10.95-7.26-18.35,2.42-13.16,7.26-18.14c4.84-4.98,10.95-7.47,18.35-7.47h159.2c-1.99,3.98-3.41,8.11-4.27,12.38-.85,4.27-1.28,8.68-1.28,13.23,0,4.84.5,9.32,1.49,13.44ZM351.51,165.57c0,2.25-.76,4.15-2.29,5.67s-3.42,2.29-5.67,2.29h-23.88v79.59c0,8.75-3.12,16.25-9.35,22.48-6.23,6.23-13.73,9.35-22.48,9.35s-16.25-3.12-22.48-9.35c-6.23-6.23-9.35-13.73-9.35-22.48s3.12-16.25,9.35-22.48c6.23-6.23,13.73-9.35,22.48-9.35,3.05,0,5.87.36,8.46,1.09,2.59.73,5.07,1.82,7.46,3.28v-76.01c0-2.26.76-4.15,2.29-5.67s3.42-2.29,5.67-2.29h31.84c2.26,0,4.15.76,5.67,2.29s2.29,3.42,2.29,5.67v15.92Z"/>
</svg>